<?xml version="1.0" encoding="UTF-8"?>
<svg id="Layer_1" xmlns="http://www.w3.org/2000/svg" version="1.1" viewBox="0 0 1080 1350">
  <!-- Generator: Adobe Illustrator 29.6.1, SVG Export Plug-In . SVG Version: 2.1.1 Build 9)  -->
  <defs>
    <style>
      .st0 {
        fill: #ff6e1b;
      }

      .st1 {
        fill: #fff;
      }

      .st2 {
        fill: #a625a9;
      }

      .st3 {
        fill: #fcfcff;
      }

      .st4 {
        fill: #fec619;
      }

      .st5 {
        fill: #008e30;
      }

      .st6 {
        fill: #7f1e84;
      }

      .st7 {
        fill: #0037aa;
      }

      .st8 {
        fill: #f3352d;
      }
    </style>
  </defs>
  <rect class="st3" y="-8" width="1080" height="1358"/>
  <rect class="st5" x="-486" y="677" width="696" height="95"/>
  <rect class="st7" x="225" y="677" width="90" height="95"/>
  <rect class="st7" x="330" y="677" width="90" height="95"/>
  <rect class="st5" x="435" y="677" width="766" height="95"/>
  <rect class="st6" x="-496" y="781" width="706" height="95"/>
  <rect class="st2" x="225" y="781" width="90" height="95"/>
  <rect class="st2" x="330" y="781" width="90" height="95"/>
  <rect class="st6" x="435" y="781" width="756" height="95"/>
  <g>
    <path d="M500.28,116.28h17.49v113.73h65.39v15.38h-82.88V116.28h0Z"/>
    <path d="M667.01,160.66c8.38,8.09,12.57,19.98,12.57,35.68s-3.69,27.72-11.07,37.62-18.84,14.85-34.37,14.85c-12.95,0-23.23-4.38-30.85-13.14s-11.43-20.52-11.43-35.29c0-15.82,4.01-28.42,12.04-37.79,8.03-9.37,18.81-14.06,32.34-14.06,12.13,0,22.39,4.04,30.77,12.13ZM657.21,223.28c3.9-7.94,5.84-16.77,5.84-26.5,0-8.79-1.41-15.94-4.22-21.45-4.45-8.67-12.13-13.01-23.03-13.01-9.67,0-16.7,3.69-21.09,11.07s-6.59,16.29-6.59,26.72,2.2,18.37,6.59,25.05,11.37,10.02,20.92,10.02c10.49,0,17.68-3.96,21.58-11.9Z"/>
    <path d="M698.82,151.26h15.03v16.26c1.23-3.16,4.25-7.02,9.05-11.56s10.34-6.81,16.61-6.81c.29,0,.79.03,1.49.09s1.9.18,3.6.35v16.7c-.94-.18-1.8-.29-2.59-.35-.79-.06-1.66-.09-2.59-.09-7.97,0-14.09,2.56-18.37,7.69-4.28,5.13-6.42,11.03-6.42,17.71v54.14h-15.82v-94.13h.01Z"/>
    <path d="M816.95,153.85c6.27,3.14,11.04,7.19,14.33,12.17,3.16,4.75,5.27,10.28,6.33,16.61.94,4.34,1.41,11.25,1.41,20.74h-68.99c.29,9.55,2.55,17.21,6.77,22.98,4.22,5.77,10.75,8.66,19.6,8.66,8.26,0,14.85-2.72,19.78-8.17,2.81-3.16,4.8-6.83,5.98-10.99h15.56c-.41,3.46-1.77,7.31-4.09,11.56s-4.91,7.72-7.78,10.42c-4.81,4.69-10.75,7.85-17.84,9.49-3.81.94-8.12,1.41-12.92,1.41-11.72,0-21.65-4.26-29.79-12.79-8.15-8.53-12.22-20.46-12.22-35.82s4.1-27.39,12.3-36.83c8.2-9.43,18.92-14.15,32.17-14.15,6.65,0,13.13,1.57,19.4,4.71ZM822.75,190.81c-.65-6.86-2.14-12.33-4.48-16.44-4.34-7.62-11.57-11.43-21.71-11.43-7.27,0-13.36,2.62-18.28,7.87-4.92,5.24-7.53,11.91-7.82,20h52.29Z"/>
    <path d="M858.43,151.26h15.64v13.36c3.75-4.63,7.15-8,10.2-10.11,5.21-3.57,11.13-5.36,17.75-5.36,7.5,0,13.54,1.85,18.11,5.54,2.58,2.11,4.92,5.22,7.03,9.32,3.52-5.04,7.65-8.77,12.39-11.21,4.75-2.43,10.08-3.65,16-3.65,12.66,0,21.27,4.57,25.84,13.71,2.46,4.92,3.69,11.54,3.69,19.86v62.67h-16.44v-65.39c0-6.27-1.57-10.58-4.7-12.92s-6.96-3.52-11.47-3.52c-6.21,0-11.56,2.08-16.04,6.24s-6.72,11.1-6.72,20.83v54.76h-16.08v-61.44c0-6.39-.76-11.04-2.29-13.97-2.4-4.39-6.89-6.59-13.45-6.59-5.98,0-11.41,2.32-16.3,6.94-4.89,4.63-7.34,13.01-7.34,25.14v49.92h-15.82v-94.13h0Z"/>
    <path d="M524.01,354.16h-25.4v-23.12h25.4v23.12ZM498.61,365.59h25.4v95.8h-25.4v-95.8h0Z"/>
    <path d="M628.83,375.87c7.81,8.26,11.72,20.39,11.72,36.39,0,16.88-3.82,29.74-11.46,38.58-7.64,8.85-17.47,13.27-29.5,13.27-7.67,0-14.04-1.9-19.11-5.71-2.77-2.11-5.48-5.19-8.14-9.23v49.92h-24.79v-133.5h23.99v14.15c2.71-4.16,5.6-7.44,8.67-9.84,5.6-4.28,12.26-6.42,19.99-6.42,11.28,0,20.82,4.13,28.63,12.39ZM609.61,393.89c-3.4-5.68-8.92-8.53-16.56-8.53-9.18,0-15.48,4.31-18.91,12.92-1.78,4.57-2.66,10.37-2.66,17.4,0,11.13,2.99,18.96,8.96,23.47,3.55,2.64,7.75,3.96,12.61,3.96,7.04,0,12.42-2.69,16.12-8.09,3.7-5.39,5.55-12.57,5.55-21.53-.01-7.39-1.71-13.92-5.11-19.6Z"/>
    <path d="M677.64,430.8c.53,4.45,1.68,7.62,3.44,9.49,3.12,3.34,8.89,5.01,17.31,5.01,4.95,0,8.88-.73,11.79-2.2,2.91-1.46,4.37-3.66,4.37-6.59s-1.17-4.95-3.52-6.42c-2.35-1.46-11.08-3.98-26.21-7.56-10.89-2.69-18.56-6.06-23.01-10.11-4.45-3.98-6.68-9.73-6.68-17.23,0-8.85,3.48-16.45,10.44-22.81s16.75-9.54,29.38-9.54c11.98,0,21.74,2.39,29.29,7.16,7.54,4.78,11.88,13.02,12.99,24.74h-25.05c-.35-3.22-1.26-5.77-2.73-7.65-2.76-3.4-7.46-5.1-14.1-5.1-5.46,0-9.36.85-11.68,2.55-2.32,1.7-3.48,3.69-3.48,5.98,0,2.87,1.23,4.95,3.7,6.24,2.47,1.35,11.18,3.66,26.15,6.94,9.98,2.34,17.46,5.89,22.44,10.63,4.92,4.81,7.38,10.81,7.38,18.02,0,9.49-3.54,17.24-10.61,23.25-7.08,6.01-18.01,9.01-32.8,9.01s-26.23-3.18-33.42-9.54c-7.19-6.36-10.79-14.46-10.79-24.3h25.4v.03Z"/>
    <path d="M783.29,365.59v57.74c0,5.45.64,9.55,1.92,12.3,2.27,4.86,6.73,7.29,13.38,7.29,8.51,0,14.34-3.46,17.49-10.37,1.63-3.75,2.45-8.7,2.45-14.85v-52.12h25.4v95.8h-24.35v-13.54c-.23.29-.82,1.17-1.75,2.64s-2.04,2.75-3.33,3.87c-3.92,3.52-7.7,5.92-11.35,7.21-3.65,1.29-7.93,1.93-12.84,1.93-14.14,0-23.66-5.1-28.57-15.29-2.75-5.62-4.12-13.92-4.12-24.87v-57.74h25.67Z"/>
    <path d="M987.81,365.94c4.1,1.64,7.82,4.51,11.16,8.61,2.69,3.34,4.51,7.44,5.45,12.3.58,3.22.88,7.94.88,14.15l-.18,60.38h-25.66v-61c0-3.63-.59-6.62-1.76-8.96-2.23-4.45-6.33-6.68-12.3-6.68-6.92,0-11.69,2.87-14.33,8.61-1.35,3.05-2.02,6.71-2.02,10.99v57.04h-25.22v-57.04c0-5.68-.59-9.81-1.76-12.39-2.11-4.63-6.24-6.94-12.39-6.94-7.15,0-11.95,2.32-14.41,6.94-1.35,2.64-2.02,6.56-2.02,11.78v57.66h-25.4v-95.62h24.35v13.97c3.1-4.98,6.03-8.53,8.79-10.63,4.86-3.75,11.16-5.62,18.9-5.62,7.32,0,13.24,1.61,17.75,4.83,3.63,2.99,6.39,6.83,8.26,11.51,3.28-5.62,7.35-9.76,12.22-12.39,5.16-2.64,10.9-3.96,17.23-3.96,4.2,0,8.36.82,12.46,2.46Z"/>
  </g>
  <g>
    <rect class="st8" x="120" y="-298.36" width="90" height="1652.65"/>
    <circle cx="165" cy="992.31" r="40.69"/>
    <path class="st1" d="M153.96,1101.59c0,2.72.44,4.97,1.31,6.75,1.62,3.28,4.57,4.92,8.84,4.92,2.62,0,4.9-.9,6.85-2.7s2.92-4.38,2.92-7.76c0-4.47-1.81-7.45-5.42-8.95-2.06-.84-5.3-1.27-9.72-1.27v-9.56c4.33-.06,7.35-.48,9.06-1.27,2.96-1.31,4.44-3.97,4.44-7.97,0-2.59-.76-4.7-2.27-6.33s-3.64-2.44-6.38-2.44c-3.15,0-5.46,1-6.94,3s-2.19,4.67-2.13,8.02h-12.47c.12-3.38.7-6.58,1.73-9.61,1.09-2.66,2.81-5.11,5.15-7.36,1.75-1.59,3.82-2.81,6.23-3.66s5.35-1.27,8.85-1.27c6.49,0,11.73,1.68,15.71,5.04,3.98,3.36,5.97,7.87,5.97,13.52,0,4-1.19,7.38-3.56,10.12-1.5,1.72-3.06,2.89-4.69,3.52,1.22,0,2.97,1.05,5.25,3.14,3.41,3.16,5.11,7.47,5.11,12.94,0,5.75-1.99,10.8-5.97,15.16s-9.87,6.54-17.68,6.54c-9.62,0-16.3-3.14-20.04-9.42-1.97-3.34-3.06-7.72-3.28-13.12h13.13v.02Z"/>
  </g>
  <g>
    <rect class="st4" x="225" y="-298.36" width="90" height="1652.65"/>
    <circle cx="270" cy="992.31" r="40.69"/>
  </g>
  <g>
    <rect class="st0" x="330" y="-298.36" width="90" height="1652.65"/>
    <circle cx="375" cy="992.31" r="40.69"/>
    <path class="st3" d="M399.18,1060.72c2.11,2.94,3.17,6.45,3.17,10.55s-1.07,7.61-3.2,10.17c-1.19,1.44-2.95,2.75-5.27,3.94,3.53,1.28,6.19,3.31,7.98,6.09,1.79,2.78,2.69,6.16,2.69,10.12s-1.03,7.77-3.08,11.02c-1.3,2.16-2.94,3.97-4.89,5.44-2.21,1.69-4.81,2.84-7.81,3.47s-6.25.94-9.76.94h-31.13v-69.09h33.39c8.43.11,14.4,2.57,17.91,7.35ZM361.66,1065.36v15.23h16.79c3,0,5.44-.57,7.31-1.71s2.81-3.16,2.81-6.07c0-3.22-1.24-5.34-3.71-6.38-2.13-.72-4.86-1.08-8.17-1.08h-15.03ZM361.66,1092.03v18.42h16.77c3,0,5.33-.41,7-1.22,3.03-1.5,4.54-4.38,4.54-8.62,0-3.59-1.47-6.06-4.4-7.41-1.64-.75-3.94-1.14-6.9-1.17h-17.01Z"/>
  </g>
  <rect class="st3" x="108" y="656" width="12" height="223"/>
  <path d="M301.38,1100.82c-1.21,3.96-3.01,7.25-5.37,9.87l7.93,7.47-7.53,7.86-8.3-7.88c-2.53,1.54-4.72,2.62-6.57,3.25-3.1,1.04-6.8,1.55-11.12,1.55-9.01,0-16.45-2.69-22.33-8.06-7.13-6.47-10.7-15.97-10.7-28.5s3.66-22.17,10.97-28.64c5.97-5.28,13.39-7.92,22.27-7.92s16.44,2.8,22.5,8.39c7,6.47,10.5,15.52,10.5,27.14,0,6.16-.75,11.31-2.25,15.47ZM275.19,1110.1c.84-.22,1.92-.61,3.24-1.17l-6.99-6.65,7.42-7.74,7.02,6.61c1.09-2.25,1.86-4.22,2.3-5.91.69-2.53,1.03-5.48,1.03-8.86,0-7.75-1.59-13.74-4.76-17.97s-7.8-6.35-13.9-6.35c-5.72,0-10.28,2.03-13.69,6.09-3.41,4.06-5.11,10.14-5.11,18.23,0,9.47,2.44,16.25,7.32,20.34,3.16,2.66,6.94,3.98,11.35,3.98,1.64.01,3.24-.19,4.77-.6Z"/>
</svg>